# This file uses centimeters as units for non-parametric coordinates.

v 0.000000 0.000000 0.000000
v 1.000000 1.000000 0.000000
v 1.000000 0.000000 0.000000
v 0.000000 1.000000 0.000000
v 0.000000 1.000000 1.000000
v 0.000000 0.000000 1.000000
v 1.000000 1.000000 1.000000
v 1.000000 0.000000 1.000000
vt 0.001890 0.331472
vt 0.331370 0.001992
vt 0.331370 0.331472
vt 0.001890 0.001992
vt 0.338705 0.001992
vt 0.668185 0.331472
vt 0.338705 0.331472
vt 0.668185 0.001992
vt 0.617659 0.664740
vt 0.947139 0.335260
vt 0.947139 0.664740
vt 0.617659 0.335260
vt 0.611836 0.335260
vt 0.611836 0.664740
vt 0.282356 0.664740
vt 0.282356 0.335260
vt 0.001890 0.668528
vt 0.331370 0.668528
vt 0.331370 0.998008
vt 0.001890 0.998008
vt 0.338705 0.668528
vt 0.668185 0.668528
vt 0.668185 0.998008
vt 0.338705 0.998008
vn 0.000000 0.000000 -1.000000
vn 0.000000 0.000000 -1.000000
vn 0.000000 0.000000 -1.000000
vn 0.000000 0.000000 -1.000000
vn 0.000000 0.000000 -1.000000
vn 0.000000 0.000000 -1.000000
vn -1.000000 0.000000 0.000000
vn -1.000000 0.000000 0.000000
vn -1.000000 0.000000 0.000000
vn -1.000000 0.000000 0.000000
vn -1.000000 0.000000 0.000000
vn -1.000000 0.000000 0.000000
vn 0.000000 1.000000 0.000000
vn 0.000000 1.000000 0.000000
vn 0.000000 1.000000 0.000000
vn 0.000000 1.000000 0.000000
vn 0.000000 1.000000 0.000000
vn 0.000000 1.000000 0.000000
vn 1.000000 0.000000 0.000000
vn 1.000000 0.000000 0.000000
vn 1.000000 0.000000 0.000000
vn 1.000000 0.000000 0.000000
vn 1.000000 0.000000 0.000000
vn 1.000000 0.000000 0.000000
vn 0.000000 -1.000000 0.000000
vn 0.000000 -1.000000 0.000000
vn 0.000000 -1.000000 0.000000
vn 0.000000 -1.000000 0.000000
vn 0.000000 -1.000000 0.000000
vn 0.000000 -1.000000 0.000000
vn 0.000000 0.000000 1.000000
vn 0.000000 0.000000 1.000000
vn 0.000000 0.000000 1.000000
vn 0.000000 0.000000 1.000000
vn 0.000000 0.000000 1.000000
vn 0.000000 0.000000 1.000000
s off
f 1/1/1 2/2/2 3/3/3
f 1/1/4 4/4/5 2/2/6
f 1/5/7 5/6/8 4/7/9
f 1/5/10 6/8/11 5/6/12
f 4/9/13 7/10/14 2/11/15
f 4/9/16 5/12/17 7/10/18
f 3/13/19 2/14/20 7/15/21
f 3/13/22 7/15/23 8/16/24
f 1/17/25 3/18/26 8/19/27
f 1/17/28 8/19/29 6/20/30
f 6/21/31 8/22/32 7/23/33
f 6/21/34 7/23/35 5/24/36
