# This file uses centimeters as units for non-parametric coordinates.

v 0.577350 -0.577350 0.577350
v 0.934172 -0.356822 0.000000
v 0.934172 0.356822 0.000000
v 0.356822 0.000000 0.934172
v 0.577350 0.577350 0.577350
v 0.356822 0.000000 -0.934172
v 0.577350 0.577350 -0.577350
v 0.577350 -0.577350 -0.577350
v -0.577350 -0.577350 -0.577350
v -0.934172 -0.356822 0.000000
v -0.934172 0.356822 0.000000
v -0.356822 0.000000 -0.934172
v -0.577350 0.577350 -0.577350
v -0.356822 0.000000 0.934172
v -0.577350 0.577350 0.577350
v -0.577350 -0.577350 0.577350
v 0.000000 0.934172 -0.356822
v 0.000000 0.934172 0.356822
v 0.000000 -0.934172 -0.356822
v 0.000000 -0.934172 0.356822
vt 0.761068 0.105991
vt 0.938589 0.170480
vt 0.938589 0.379169
vt 0.651354 0.001647
vt 0.938589 0.105991
vt 0.651354 0.274824
vt 0.761068 0.001647
vt 0.938589 0.274824
vt 0.761068 0.443657
vt 0.473833 0.274824
vt 0.938589 0.443657
vt 0.651354 0.548001
vt 0.473833 0.105991
vt 0.761068 0.548001
vt 0.473833 0.443657
vt 0.289227 0.105991
vt 0.466748 0.170480
vt 0.466748 0.379169
vt 0.179513 0.001647
vt 0.179513 0.274824
vt 0.001992 0.274824
vt 0.289227 0.001647
vt 0.289227 0.443657
vt 0.001992 0.105991
vt 0.466748 0.105991
vt 0.179513 0.548001
vt 0.001992 0.443657
vt 0.289227 0.548001
vt 0.466748 0.443657
vt 0.466748 0.274824
vt 0.820487 0.616481
vt 0.998008 0.551993
vt 0.820487 0.825170
vn 0.850651 0.000000 0.525731
vn 0.850651 0.000000 0.525731
vn 0.850651 0.000000 0.525731
vn 0.850651 0.000000 0.525731
vn 0.850651 0.000000 0.525731
vn 0.850651 0.000000 0.525731
vn 0.850651 -0.000000 0.525731
vn 0.850651 -0.000000 0.525731
vn 0.850651 -0.000000 0.525731
vn 0.850651 0.000000 -0.525731
vn 0.850651 0.000000 -0.525731
vn 0.850651 0.000000 -0.525731
vn 0.850651 0.000000 -0.525731
vn 0.850651 0.000000 -0.525731
vn 0.850651 0.000000 -0.525731
vn 0.850651 0.000000 -0.525731
vn 0.850651 0.000000 -0.525731
vn 0.850651 0.000000 -0.525731
vn -0.850651 0.000000 -0.525731
vn -0.850651 0.000000 -0.525731
vn -0.850651 0.000000 -0.525731
vn -0.850651 0.000000 -0.525731
vn -0.850651 0.000000 -0.525731
vn -0.850651 0.000000 -0.525731
vn -0.850651 -0.000000 -0.525731
vn -0.850651 -0.000000 -0.525731
vn -0.850651 -0.000000 -0.525731
vn -0.850651 0.000000 0.525731
vn -0.850651 0.000000 0.525731
vn -0.850651 0.000000 0.525731
vn -0.850651 0.000000 0.525731
vn -0.850651 0.000000 0.525731
vn -0.850651 0.000000 0.525731
vn -0.850651 0.000000 0.525731
vn -0.850651 0.000000 0.525731
vn -0.850651 0.000000 0.525731
vn -0.525731 0.850651 0.000000
vn -0.525731 0.850651 0.000000
vn -0.525731 0.850651 0.000000
vn -0.525731 0.850651 0.000000
vn -0.525731 0.850651 0.000000
vn -0.525731 0.850651 0.000000
vn -0.525731 0.850651 -0.000000
vn -0.525731 0.850651 -0.000000
vn -0.525731 0.850651 -0.000000
vn 0.525731 0.850651 0.000000
vn 0.525731 0.850651 0.000000
vn 0.525731 0.850651 0.000000
vn 0.525731 0.850651 0.000000
vn 0.525731 0.850651 0.000000
vn 0.525731 0.850651 0.000000
vn 0.525731 0.850651 0.000000
vn 0.525731 0.850651 0.000000
vn 0.525731 0.850651 0.000000
vn 0.525731 -0.850651 0.000000
vn 0.525731 -0.850651 0.000000
vn 0.525731 -0.850651 0.000000
vn 0.525731 -0.850651 0.000000
vn 0.525731 -0.850651 0.000000
vn 0.525731 -0.850651 0.000000
vn 0.525731 -0.850651 -0.000000
vn 0.525731 -0.850651 -0.000000
vn 0.525731 -0.850651 -0.000000
vn -0.525731 -0.850651 0.000000
vn -0.525731 -0.850651 0.000000
vn -0.525731 -0.850651 0.000000
vn -0.525731 -0.850651 0.000000
vn -0.525731 -0.850651 0.000000
vn -0.525731 -0.850651 0.000000
vn -0.525731 -0.850651 0.000000
vn -0.525731 -0.850651 0.000000
vn -0.525731 -0.850651 0.000000
vn 0.000000 -0.525731 -0.850651
vn 0.000000 -0.525731 -0.850651
vn 0.000000 -0.525731 -0.850651
vn 0.000000 -0.525731 -0.850651
vn 0.000000 -0.525731 -0.850651
vn 0.000000 -0.525731 -0.850651
vn -0.000000 -0.525731 -0.850651
vn -0.000000 -0.525731 -0.850651
vn -0.000000 -0.525731 -0.850651
vn 0.000000 0.525731 -0.850651
vn 0.000000 0.525731 -0.850651
vn 0.000000 0.525731 -0.850651
vn 0.000000 0.525731 -0.850651
vn 0.000000 0.525731 -0.850651
vn 0.000000 0.525731 -0.850651
vn -0.000000 0.525731 -0.850651
vn -0.000000 0.525731 -0.850651
vn -0.000000 0.525731 -0.850651
vn 0.000000 0.525731 0.850651
vn 0.000000 0.525731 0.850651
vn 0.000000 0.525731 0.850651
vn 0.000000 0.525731 0.850651
vn 0.000000 0.525731 0.850651
vn 0.000000 0.525731 0.850651
vn 0.000000 0.525731 0.850651
vn 0.000000 0.525731 0.850651
vn 0.000000 0.525731 0.850651
vn 0.000000 -0.525731 0.850651
vn 0.000000 -0.525731 0.850651
vn 0.000000 -0.525731 0.850651
vn 0.000000 -0.525731 0.850651
vn 0.000000 -0.525731 0.850651
vn 0.000000 -0.525731 0.850651
vn -0.000000 -0.525731 0.850651
vn -0.000000 -0.525731 0.850651
vn -0.000000 -0.525731 0.850651
s off
f 1/1/1 2/2/2 3/3/3
f 4/6/4 1/1/5 3/3/6
f 5/9/7 4/6/8 3/3/9
f 6/8/10 7/11/11 3/3/12
f 8/5/13 6/8/14 3/3/15
f 2/2/16 8/5/17 3/3/18
f 9/16/19 10/17/20 11/18/21
f 12/20/22 9/16/23 11/18/24
f 13/23/25 12/20/26 11/18/27
f 14/30/28 15/29/29 11/18/30
f 16/25/31 14/30/32 11/18/33
f 10/31/34 16/32/35 11/33/36
f 17/26/37 13/23/38 11/18/39
f 18/28/40 17/26/41 11/18/42
f 15/29/43 18/28/44 11/18/45
f 18/12/46 5/9/47 3/3/48
f 17/14/49 18/12/50 3/3/51
f 7/11/52 17/14/53 3/3/54
f 19/7/55 8/5/56 2/2/57
f 20/4/58 19/7/59 2/2/60
f 1/1/61 20/4/62 2/2/63
f 20/22/64 16/25/65 10/17/66
f 19/19/67 20/22/68 10/17/69
f 9/16/70 19/19/71 10/17/72
f 9/16/73 12/20/74 6/21/75
f 19/19/76 9/16/77 6/21/78
f 8/24/79 19/19/80 6/21/81
f 12/20/82 13/23/83 17/26/84
f 6/21/85 12/20/86 17/26/87
f 7/27/88 6/21/89 17/26/90
f 4/6/91 5/9/92 18/12/93
f 14/10/94 4/6/95 18/12/96
f 15/15/97 14/10/98 18/12/99
f 14/10/100 16/13/101 20/4/102
f 4/6/103 14/10/104 20/4/105
f 1/1/106 4/6/107 20/4/108
