# This file uses centimeters as units for non-parametric coordinates.

v 0.850651 0.000000 0.525731
v 0.850651 0.000000 -0.525731
v 0.525731 0.850651 0.000000
v 0.525731 -0.850651 0.000000
v -0.850651 0.000000 -0.525731
v -0.850651 0.000000 0.525731
v -0.525731 0.850651 0.000000
v -0.525731 -0.850651 0.000000
v 0.000000 0.525731 0.850651
v 0.000000 0.525731 -0.850651
v 0.000000 -0.525731 -0.850651
v 0.000000 -0.525731 0.850651
vt 0.001992 0.189353
vt 0.117886 0.001833
vt 0.219453 0.194179
vt 0.313213 0.042472
vt 0.125693 0.345886
vt 0.631088 0.189353
vt 0.413626 0.194179
vt 0.515194 0.001833
vt 0.507386 0.345886
vt 0.319866 0.042472
vt 0.802680 0.693929
vt 0.686787 0.506409
vt 0.904248 0.501584
vt 0.810488 0.349877
vt 0.998008 0.653291
vt 0.948767 0.158365
vt 0.832873 0.345886
vt 0.731306 0.153540
vt 0.637545 0.305247
vt 0.825066 0.001833
vt 0.579497 0.574312
vt 0.579497 0.794755
vt 0.391977 0.684533
vt 0.493131 0.570320
vt 0.493131 0.349877
vt 0.680651 0.460099
vt 0.486996 0.349877
vt 0.486996 0.570320
vt 0.299476 0.460099
vt 0.586873 0.918364
vt 0.586873 0.697921
vt 0.774393 0.808142
vt 0.969288 0.697921
vt 0.969288 0.918364
vt 0.781768 0.808142
vt 0.105821 0.570320
vt 0.105821 0.349877
vt 0.293341 0.460099
vt 0.001992 0.794755
vt 0.001992 0.574312
vt 0.189512 0.684533
vt 0.384602 0.574312
vt 0.384602 0.794755
vt 0.197082 0.684533
vn 0.934172 0.356822 0.000000
vn 0.934172 0.356822 0.000000
vn 0.934172 0.356822 0.000000
vn 0.934172 -0.356822 0.000000
vn 0.934172 -0.356822 0.000000
vn 0.934172 -0.356822 0.000000
vn -0.934172 0.356822 0.000000
vn -0.934172 0.356822 0.000000
vn -0.934172 0.356822 0.000000
vn -0.934172 -0.356822 0.000000
vn -0.934172 -0.356822 0.000000
vn -0.934172 -0.356822 0.000000
vn 0.000000 0.934172 0.356822
vn 0.000000 0.934172 0.356822
vn 0.000000 0.934172 0.356822
vn 0.000000 0.934172 -0.356822
vn 0.000000 0.934172 -0.356822
vn 0.000000 0.934172 -0.356822
vn 0.356822 0.000000 -0.934172
vn 0.356822 0.000000 -0.934172
vn 0.356822 0.000000 -0.934172
vn -0.356822 0.000000 -0.934172
vn -0.356822 0.000000 -0.934172
vn -0.356822 0.000000 -0.934172
vn 0.000000 -0.934172 -0.356822
vn 0.000000 -0.934172 -0.356822
vn 0.000000 -0.934172 -0.356822
vn 0.000000 -0.934172 0.356822
vn 0.000000 -0.934172 0.356822
vn 0.000000 -0.934172 0.356822
vn 0.356822 0.000000 0.934172
vn 0.356822 0.000000 0.934172
vn 0.356822 0.000000 0.934172
vn -0.356822 0.000000 0.934172
vn -0.356822 0.000000 0.934172
vn -0.356822 0.000000 0.934172
vn 0.577350 0.577350 -0.577350
vn 0.577350 0.577350 -0.577350
vn 0.577350 0.577350 -0.577350
vn 0.577350 0.577350 0.577350
vn 0.577350 0.577350 0.577350
vn 0.577350 0.577350 0.577350
vn -0.577350 0.577350 -0.577350
vn -0.577350 0.577350 -0.577350
vn -0.577350 0.577350 -0.577350
vn -0.577350 0.577350 0.577350
vn -0.577350 0.577350 0.577350
vn -0.577350 0.577350 0.577350
vn 0.577350 -0.577350 -0.577350
vn 0.577350 -0.577350 -0.577350
vn 0.577350 -0.577350 -0.577350
vn 0.577350 -0.577350 0.577350
vn 0.577350 -0.577350 0.577350
vn 0.577350 -0.577350 0.577350
vn -0.577350 -0.577350 -0.577350
vn -0.577350 -0.577350 -0.577350
vn -0.577350 -0.577350 -0.577350
vn -0.577350 -0.577350 0.577350
vn -0.577350 -0.577350 0.577350
vn -0.577350 -0.577350 0.577350
s off
f 1/1/1 2/2/2 3/3/3
f 1/6/4 4/7/5 2/8/6
f 5/11/7 6/12/8 7/13/9
f 6/16/10 5/17/11 8/18/12
f 3/21/13 7/22/14 9/23/15
f 7/24/16 3/25/17 10/26/18
f 11/27/19 10/28/20 2/29/21
f 10/30/22 11/31/23 5/32/24
f 4/33/25 8/34/26 11/35/27
f 8/36/28 4/37/29 12/38/30
f 9/39/31 12/40/32 1/41/33
f 12/42/34 9/43/35 6/44/36
f 3/3/37 2/2/38 10/4/39
f 1/1/40 3/3/41 9/5/42
f 5/11/43 7/13/44 10/15/45
f 7/13/46 6/12/47 9/14/48
f 2/8/49 4/7/50 11/10/51
f 4/7/52 1/6/53 12/9/54
f 5/17/55 11/19/56 8/18/57
f 6/16/58 8/18/59 12/20/60
